<?xml version="1.0" encoding="iso-8859-1"?>
<!-- Generator: Adobe Illustrator 18.0.0, SVG Export Plug-In . SVG Version: 6.00 Build 0)  -->
<!DOCTYPE svg PUBLIC "-//W3C//DTD SVG 1.1//EN" "http://www.w3.org/Graphics/SVG/1.1/DTD/svg11.dtd">
<svg version="1.1" id="Capa_1" xmlns="http://www.w3.org/2000/svg" xmlns:xlink="http://www.w3.org/1999/xlink" x="0px" y="0px"
	 viewBox="0 0 487.641 487.641" style="enable-background:new 0 0 487.641 487.641;" xml:space="preserve">
<g>
	<path d="M307.186,451.162c0,2.379-1.436,3.96-2.363,3.96H39.645c-0.939,0-2.36-1.581-2.36-3.96V55.424
		c0-2.375,1.421-3.954,2.36-3.954h265.178c0.928,0,2.363,1.579,2.363,3.954v5.252l22.966-30.181
		c-6.373-7.065-15.346-11.546-25.329-11.546H39.645c-19.238,0-34.888,16.36-34.888,36.475v395.738
		c0,20.113,15.649,36.479,34.888,36.479h265.178c19.23,0,34.895-16.366,34.895-36.479V303.355l-32.531,42.765V451.162z"/>
	<path d="M478.073,67.703L392.302,2.469c-2.558-1.938-5.762-2.777-9.036-2.368c-3.198,0.436-6.103,2.123-8.049,4.7L113.868,348.458
		c-4.085,5.358-3.05,13.015,2.32,17.095l85.764,65.225c2.142,1.62,4.729,2.482,7.379,2.482c0.542,0,1.102-0.04,1.665-0.111
		c3.189-0.431,6.098-2.125,8.043-4.692L480.385,84.799C484.473,79.433,483.436,71.782,478.073,67.703z M207.016,403.981
		l-66.365-50.47l19.369-25.446l20.232,15.41c1.486,1.118,3.211,1.662,4.934,1.662c2.444,0,4.871-1.102,6.454-3.213
		c2.729-3.563,2.044-8.668-1.536-11.393l-20.246-15.408l18.446-24.255l20.246,15.4c1.468,1.118,3.192,1.662,4.92,1.662
		c2.439,0,4.87-1.102,6.468-3.208c2.73-3.57,2.025-8.681-1.553-11.396l-20.246-15.402l18.461-24.257l20.246,15.402
		c1.47,1.125,3.194,1.664,4.922,1.664c2.439,0,4.869-1.104,6.479-3.214c2.719-3.566,2.015-8.677-1.565-11.392l-20.261-15.402
		l18.459-24.257l20.265,15.412c1.465,1.124,3.206,1.66,4.915,1.66c2.443,0,4.871-1.103,6.484-3.211
		c2.712-3.568,2.014-8.67-1.566-11.393l-20.263-15.408l18.444-24.249l20.265,15.4c1.472,1.128,3.213,1.66,4.92,1.66
		c2.443,0,4.87-1.101,6.48-3.201c2.718-3.586,2.014-8.68-1.561-11.392l-20.265-15.412l18.457-24.263l20.267,15.418
		c1.467,1.116,3.211,1.652,4.92,1.652c2.439,0,4.87-1.104,6.48-3.203c2.715-3.576,2.013-8.678-1.567-11.394l-20.259-15.416
		l18.439-24.251l20.265,15.412c1.474,1.116,3.211,1.652,4.922,1.652c2.443,0,4.889-1.103,6.482-3.203
		c2.715-3.576,2.011-8.68-1.563-11.396l-20.249-15.408l47.647-62.668l66.367,50.469L207.016,403.981z"/>
	<path d="M410.969,86.811c3.992-5.271,2.97-12.814-2.315-16.841c-5.284-4.014-12.822-2.991-16.845,2.285
		c-4.027,5.302-2.985,12.839,2.265,16.854C399.391,93.143,406.931,92.11,410.969,86.811z"/>
</g>
<g>
</g>
<g>
</g>
<g>
</g>
<g>
</g>
<g>
</g>
<g>
</g>
<g>
</g>
<g>
</g>
<g>
</g>
<g>
</g>
<g>
</g>
<g>
</g>
<g>
</g>
<g>
</g>
<g>
</g>
</svg>
